# xmcd CD database file generated by OrangeCD 6.4
#
# Track frame offsets:
#	150
#	11586
#	20966
#	30696
#	38981
#	49828
#	59363
#	70875
#	81331
#	90495
#	102523
#	112608
#	121565
#	130023
#	138755
#	149641
#	159007
#	171738
#	181420
#	189934
#
# Disc length: 2666 seconds
#
# Revision: 0
# Processed by: cddbd v1.5.2PL0 Copyright (c) Steve Scherf et al.
# Submitted via: OrangeCD 6.4
#
DISCID=0d0a6814
DTITLE=Johnny Cash - Ride This Train
DYEAR=2011
DGENRE=Country Pop
TTITLE0=Seasons Of My Heart
TTITLE1=I Feel Better All Over
TTITLE2=I Couldn't Keep From Crying
TTITLE3=Time Changes Everything
TTITLE4=My Shoes Keep Walking Back To You
TTITLE5=I'd Just Be Fool Enough (To Fall)
TTITLE6=Transfusion Blues
TTITLE7=Why Do You Punish Me (For Loving You)
TTITLE8=I Will Miss You When You Go
TTITLE9=I'm So Lonesome I Could Cry
TTITLE10=Just One More
TTITLE11=Honky Tonk Girl
TTITLE12=The Rebel - Johnny Yuma
TTITLE13=Second Honeymoon
TTITLE14=I Heard That Lonesome Whistle
TTITLE15=Down The Street To 301
TTITLE16=Locomotive Man
TTITLE17=The Great Speckled Bird
TTITLE18=Lorena
TTITLE19=Girl In Saskatoon
EXTD=
EXTT0=
EXTT1=
EXTT2=
EXTT3=
EXTT4=
EXTT5=
EXTT6=
EXTT7=
EXTT8=
EXTT9=
EXTT10=
EXTT11=
EXTT12=
EXTT13=
EXTT14=
EXTT15=
EXTT16=
EXTT17=
EXTT18=
EXTT19=
PLAYORDER=
